<?xml version="1.0" encoding="utf-8" ?>
<!DOCTYPE svg PUBLIC "-//W3C//DTD SVG 1.1//EN" "http://www.w3.org/Graphics/SVG/1.1/DTD/svg11.dtd">
<svg height="607" version="1.1" width="860" xmlns="http://www.w3.org/2000/svg">
<rect fill="#ffffff" height="564" stroke="#ffffff" stroke-width="1" width="231" x="14" y="25"/>
<rect fill="none" height="564" stroke="#000000" stroke-width="1" width="231" x="14" y="25"/>
<text font-family="Dialog" font-size="14" x="51" y="41">
+ CControlActionHandler</text>
<rect fill="#000000" height="1" stroke="#000000" stroke-width="1" width="231" x="14" y="52"/>
<text font-family="Dialog" font-size="14" x="18" y="69">
-mSoftTimer : SSoftTimer&amp;</text>
<text font-family="Dialog" font-size="14" x="18" y="89">
-mControlUnit : CControlUnit</text>
<text font-family="Dialog" font-size="14" x="18" y="109">
-mJumpFlag : bool</text>
<text font-family="Dialog" font-size="14" x="18" y="129">
-mBalanceFlag : bool</text>
<text font-family="Dialog" font-size="14" x="18" y="149">
-mTransmitFlag : bool</text>
<rect fill="#000000" height="1" stroke="#000000" stroke-width="1" width="231" x="14" y="160"/>
<text font-family="Dialog" font-size="14" x="18" y="177">
+onEntryConfiguration() : void</text>
<text font-family="Dialog" font-size="14" x="18" y="197">
+onExitConfiguration() : void</text>
<text font-family="Dialog" font-size="14" x="18" y="217">
+onEntryRunning() : void</text>
<text font-family="Dialog" font-size="14" x="18" y="237">
+onExitRunning() : void</text>
<text font-family="Dialog" font-size="14" x="18" y="257">
+onEntryIdle() : void</text>
<text font-family="Dialog" font-size="14" x="18" y="277">
+onExitIdle() : void</text>
<text font-family="Dialog" font-size="14" x="18" y="297">
+onEntryBalance() : void</text>
<text font-family="Dialog" font-size="14" x="18" y="317">
+onExitBalance() : void</text>
<text font-family="Dialog" font-size="14" x="18" y="337">
+onEntryJump() : void</text>
<text font-family="Dialog" font-size="14" x="18" y="357">
+onExitJump() : void</text>
<text font-family="Dialog" font-size="14" x="18" y="377">
+onEntryWaiting() : void</text>
<text font-family="Dialog" font-size="14" x="18" y="397">
+onExitWaiting() : void</text>
<text font-family="Dialog" font-size="14" x="18" y="417">
+onEntryAccelerate() : void</text>
<text font-family="Dialog" font-size="14" x="18" y="437">
+onExitAccelerate() : void</text>
<text font-family="Dialog" font-size="14" x="18" y="457">
+onEntryBrake() : void</text>
<text font-family="Dialog" font-size="14" x="18" y="477">
+onExitBrake() : void</text>
<text font-family="Dialog" font-size="14" x="18" y="497">
+phiK_inBalanceArea() : bool</text>
<text font-family="Dialog" font-size="14" x="18" y="517">
+cubeIsResting() : bool</text>
<text font-family="Dialog" font-size="14" x="18" y="537">
+jumpVelocityReached() : bool</text>
<text font-family="Dialog" font-size="14" x="18" y="557">
+controlIteration() : void</text>
<text font-family="Dialog" font-size="14" x="18" y="577">
+actiavteBrake() : void</text>
<rect fill="#ffffff" height="224" stroke="#ffffff" stroke-width="1" width="296" x="550" y="369"/>
<rect fill="none" height="224" stroke="#000000" stroke-width="1" width="296" x="550" y="369"/>
<text font-family="Dialog" font-size="14" x="657" y="385">
+ SSoftTimer</text>
<rect fill="#000000" height="1" stroke="#000000" stroke-width="1" width="296" x="550" y="396"/>
<text font-family="Dialog" font-size="14" x="554" y="413">
-mActive : bool</text>
<text font-family="Dialog" font-size="14" x="554" y="433">
-mTickLimit : UInt32</text>
<text font-family="Dialog" font-size="14" x="554" y="453">
-mTickCounter : UInt32</text>
<text font-family="Dialog" font-size="14" x="554" y="473">
-mInstance : SSoftTimer*</text>
<rect fill="#000000" height="1" stroke="#000000" stroke-width="1" width="296" x="550" y="484"/>
<text font-family="Dialog" font-size="14" x="554" y="501">
+start() : void</text>
<text font-family="Dialog" font-size="14" x="554" y="521">
+stop() : void</text>
<text font-family="Dialog" font-size="14" x="554" y="541">
+setPeriod(periodInMS : UInt32) : void</text>
<text font-family="Dialog" font-size="14" x="554" y="561">
+onSysTick() : void</text>
<text font-family="Dialog" font-size="14" x="554" y="581">
+getInstance() : SSoftTimer&amp;</text>
<polyline fill="none" points="244,393 550,393" stroke="#000000" stroke-width="1"/>
<polygon fill="#000000" points="244,393 254,388 264,393 254,398" stroke="#000000" stroke-width="1"/>
<polygon fill="none" points="244,393 254,388 264,393 254,398" stroke="#000000" stroke-width="1"/>
<text font-family="Dialog" font-size="14" x="366" y="374">
 </text>
<text font-family="Dialog" font-size="14" x="257" y="387">
1</text>
<text font-family="Dialog" font-size="14" x="529" y="387">
1</text>
<rect fill="#ffffff" height="224" stroke="#ffffff" stroke-width="1" width="200" x="286" y="25"/>
<rect fill="none" height="224" stroke="#000000" stroke-width="1" width="200" x="286" y="25"/>
<text font-family="Dialog" font-size="14" x="340" y="41">
+ CControlUnit</text>
<rect fill="#000000" height="1" stroke="#000000" stroke-width="1" width="200" x="286" y="52"/>
<text font-family="Dialog" font-size="14" x="290" y="69">
-mControl : IControl</text>
<text font-family="Dialog" font-size="14" x="290" y="89">
-mHardware : IHardware</text>
<rect fill="#000000" height="1" stroke="#000000" stroke-width="1" width="200" x="286" y="100"/>
<text font-family="Dialog" font-size="14" x="290" y="117">
+getPhiK() : UInt32</text>
<text font-family="Dialog" font-size="14" x="290" y="137">
+getPhiK_d() : UInt32</text>
<text font-family="Dialog" font-size="14" x="290" y="157">
+getPhiK_dd() : UInt32</text>
<text font-family="Dialog" font-size="14" x="290" y="177">
+getPhiR_d() : UInt32</text>
<text font-family="Dialog" font-size="14" x="290" y="197">
+controlIteration() : UInt32</text>
<text font-family="Dialog" font-size="14" x="290" y="217">
+activateBrake() : void</text>
<text font-family="Dialog" font-size="14" x="290" y="237">
+deactivateBrake() : void</text>
<rect fill="#ffffff" height="79" stroke="#ffffff" stroke-width="1" width="320" x="526" y="25"/>
<rect fill="none" height="79" stroke="#000000" stroke-width="1" width="320" x="526" y="25"/>
<text font-family="Dialog" font-size="14" x="655" y="64">
+ IControl</text>
<text font-family="Dialog" font-size="14" x="642" y="42">
&lt;&lt;interface&gt;&gt;</text>
<rect fill="#000000" height="1" stroke="#000000" stroke-width="1" width="320" x="526" y="75"/>
<text font-family="Dialog" font-size="14" x="530" y="92">
+controlIteration() : UInt32</text>
<rect fill="#ffffff" height="71" stroke="#ffffff" stroke-width="1" width="66" x="526" y="161"/>
<rect fill="none" height="71" stroke="#000000" stroke-width="1" width="66" x="526" y="161"/>
<text font-family="Dialog" font-size="14" x="537" y="177">
+ CPID</text>
<rect fill="#000000" height="1" stroke="#000000" stroke-width="1" width="66" x="526" y="188"/>
<rect fill="#000000" height="1" stroke="#000000" stroke-width="1" width="66" x="526" y="209"/>
<line fill="#333399" stroke="#333399" stroke-width="1" x1="575" x2="575" y1="169" y2="164"/>
<line fill="#333399" stroke="#333399" stroke-width="1" x1="575" x2="575" y1="159" y2="154"/>
<line fill="#333399" stroke="#333399" stroke-width="1" x1="575" x2="575" y1="149" y2="144"/>
<line fill="#333399" stroke="#333399" stroke-width="1" x1="575" x2="575" y1="139" y2="134"/>
<line fill="#333399" stroke="#333399" stroke-width="1" x1="575" x2="575" y1="129" y2="124"/>
<line fill="#333399" stroke="#333399" stroke-width="1" x1="575" x2="575" y1="119" y2="114"/>
<polygon fill="#ffffff" points="575,111 582,123 568,123" stroke="#ffffff" stroke-width="1"/>
<polygon fill="none" points="575,111 582,123 568,123" stroke="#333399" stroke-width="1"/>
<text font-family="Dialog" font-size="14" x="491" y="155">
&lt;&lt;realize&gt;&gt;</text>
<rect fill="#ffffff" height="71" stroke="#ffffff" stroke-width="1" width="72" x="622" y="161"/>
<rect fill="none" height="71" stroke="#000000" stroke-width="1" width="72" x="622" y="161"/>
<text font-family="Dialog" font-size="14" x="632" y="177">
+ CLQR</text>
<rect fill="#000000" height="1" stroke="#000000" stroke-width="1" width="72" x="622" y="188"/>
<rect fill="#000000" height="1" stroke="#000000" stroke-width="1" width="72" x="622" y="209"/>
<rect fill="#ffffff" height="71" stroke="#ffffff" stroke-width="1" width="136" x="710" y="161"/>
<rect fill="none" height="71" stroke="#000000" stroke-width="1" width="136" x="710" y="161"/>
<text font-family="Dialog" font-size="14" x="725" y="177">
+ CNeuroControl</text>
<rect fill="#000000" height="1" stroke="#000000" stroke-width="1" width="136" x="710" y="188"/>
<rect fill="#000000" height="1" stroke="#000000" stroke-width="1" width="136" x="710" y="209"/>
<line fill="#333399" stroke="#333399" stroke-width="1" x1="829" x2="829" y1="161" y2="156"/>
<line fill="#333399" stroke="#333399" stroke-width="1" x1="829" x2="829" y1="151" y2="146"/>
<line fill="#333399" stroke="#333399" stroke-width="1" x1="829" x2="829" y1="141" y2="136"/>
<line fill="#333399" stroke="#333399" stroke-width="1" x1="829" x2="829" y1="131" y2="126"/>
<line fill="#333399" stroke="#333399" stroke-width="1" x1="829" x2="829" y1="121" y2="116"/>
<line fill="#333399" stroke="#333399" stroke-width="1" x1="829" x2="829" y1="111" y2="106"/>
<polygon fill="#ffffff" points="829,103 836,115 822,115" stroke="#ffffff" stroke-width="1"/>
<polygon fill="none" points="829,103 836,115 822,115" stroke="#333399" stroke-width="1"/>
<text font-family="Dialog" font-size="14" x="746" y="147">
&lt;&lt;realize&gt;&gt;</text>
<line fill="#333399" stroke="#333399" stroke-width="1" x1="685" x2="685" y1="161" y2="156"/>
<line fill="#333399" stroke="#333399" stroke-width="1" x1="685" x2="685" y1="151" y2="146"/>
<line fill="#333399" stroke="#333399" stroke-width="1" x1="685" x2="685" y1="141" y2="136"/>
<line fill="#333399" stroke="#333399" stroke-width="1" x1="685" x2="685" y1="131" y2="126"/>
<line fill="#333399" stroke="#333399" stroke-width="1" x1="685" x2="685" y1="121" y2="116"/>
<line fill="#333399" stroke="#333399" stroke-width="1" x1="685" x2="685" y1="111" y2="106"/>
<polygon fill="#ffffff" points="685,103 692,115 678,115" stroke="#ffffff" stroke-width="1"/>
<polygon fill="none" points="685,103 692,115 678,115" stroke="#333399" stroke-width="1"/>
<text font-family="Dialog" font-size="14" x="601" y="147">
&lt;&lt;realize&gt;&gt;</text>
<polyline fill="none" points="485,49 526,49" stroke="#000000" stroke-width="1"/>
<polygon fill="#ffffff" points="485,49 495,44 505,49 495,54" stroke="#ffffff" stroke-width="1"/>
<polygon fill="none" points="485,49 495,44 505,49 495,54" stroke="#000000" stroke-width="1"/>
<text font-family="Dialog" font-size="14" x="481" y="37">
 </text>
<rect fill="#ffffff" height="72" stroke="#ffffff" stroke-width="1" width="152" x="286" y="289"/>
<rect fill="none" height="72" stroke="#000000" stroke-width="1" width="152" x="286" y="289"/>
<text font-family="Dialog" font-size="14" x="324" y="328">
+ IHardware</text>
<text font-family="Dialog" font-size="14" x="318" y="306">
&lt;&lt;interface&gt;&gt;</text>
<rect fill="#000000" height="1" stroke="#000000" stroke-width="1" width="152" x="286" y="339"/>
<polyline fill="none" points="382,248 382,289" stroke="#000000" stroke-width="1"/>
<polygon fill="#ffffff" points="382,248 387,258 382,268 377,258" stroke="#ffffff" stroke-width="1"/>
<polygon fill="none" points="382,248 387,258 382,268 377,258" stroke="#000000" stroke-width="1"/>
<text font-family="Dialog" font-size="14" x="398" y="274">
 </text>
<polyline fill="none" points="244,49 286,49" stroke="#000000" stroke-width="1"/>
<polygon fill="#000000" points="244,49 254,44 264,49 254,54" stroke="#000000" stroke-width="1"/>
<polygon fill="none" points="244,49 254,44 264,49 254,54" stroke="#000000" stroke-width="1"/>
<text font-family="Dialog" font-size="14" x="234" y="30">
 </text>
<polygon fill="#ffffff" points="438,289 835,289 845,299 845,320 438,320 438,289" stroke="#ffffff" stroke-width="1"/>
<polyline fill="none" points="438,289 835,289 845,299 845,320 438,320 438,289" stroke="#000000" stroke-width="1"/>
<polygon fill="#b2b2b2" points="835,289 845,299 835,299 835,289" stroke="#b2b2b2" stroke-width="1"/>
<polyline fill="none" points="835,289 845,299 835,299 835,289" stroke="#000000" stroke-width="1"/>
<text font-family="Dialog" font-size="14" x="441" y="307">
Dummy für die Klassen zur Hardwareansteuerung.</text>
</svg>
