<?xml version="1.0" encoding="utf-8" ?>
<!DOCTYPE svg PUBLIC "-//W3C//DTD SVG 1.1//EN" "http://www.w3.org/Graphics/SVG/1.1/DTD/svg11.dtd">
<svg height="516" version="1.1" width="1076" xmlns="http://www.w3.org/2000/svg">
<rect fill="#ffffff" height="240" stroke="#ffffff" stroke-width="1" width="232" x="422" y="14"/>
<rect fill="none" height="240" stroke="#000000" stroke-width="1" width="232" x="422" y="14"/>
<text font-family="Dialog" font-size="14" x="498" y="30">
+ CMessage</text>
<rect fill="#000000" height="1" stroke="#000000" stroke-width="1" width="232" x="422" y="41"/>
<text font-family="Dialog" font-size="14" x="426" y="58">
-mSender : EComponentID</text>
<text font-family="Dialog" font-size="14" x="426" y="78">
-mReceiver : EComponentID</text>
<text font-family="Dialog" font-size="14" x="426" y="98">
-mType : EMessageType</text>
<text font-family="Dialog" font-size="14" x="426" y="118">
-mDiagEvent : ECommEvent</text>
<text font-family="Dialog" font-size="14" x="426" y="138">
-mCommEvent</text>
<text font-family="Dialog" font-size="14" x="426" y="158">
-mControlEvent : EControlEvent</text>
<text font-family="Dialog" font-size="14" x="426" y="178">
-mData [12] : UInt8</text>
<rect fill="#000000" height="1" stroke="#000000" stroke-width="1" width="232" x="422" y="210"/>
<rect fill="#ffffff" height="144" stroke="#ffffff" stroke-width="1" width="168" x="566" y="358"/>
<rect fill="none" height="144" stroke="#000000" stroke-width="1" width="168" x="566" y="358"/>
<text font-family="Dialog" font-size="14" x="602" y="396">
EComponentID</text>
<text font-family="Dialog" font-size="14" x="594" y="375">
&lt;&lt;enumeration&gt;&gt;</text>
<rect fill="#000000" height="1" stroke="#000000" stroke-width="1" width="168" x="566" y="406"/>
<text font-family="Dialog" font-size="14" x="570" y="423">
CONTROL_COMP</text>
<text font-family="Dialog" font-size="14" x="570" y="442">
COMM_COMP</text>
<rect fill="#000000" height="1" stroke="#000000" stroke-width="1" width="168" x="566" y="466"/>
<polyline fill="none" points="653,253 653,358" stroke="#000000" stroke-width="1"/>
<polygon fill="#000000" points="653,253 658,263 653,273 648,263" stroke="#000000" stroke-width="1"/>
<polygon fill="none" points="653,253 658,263 653,273 648,263" stroke="#000000" stroke-width="1"/>
<text font-family="Dialog" font-size="14" x="668" y="326">
 </text>
<text font-family="Dialog" font-size="14" x="733" y="274">
1</text>
<text font-family="Dialog" font-size="14" x="666" y="352">
2</text>
<rect fill="#ffffff" height="487" stroke="#ffffff" stroke-width="1" width="286" x="14" y="14"/>
<rect fill="none" height="487" stroke="#000000" stroke-width="1" width="286" x="14" y="14"/>
<text font-family="Dialog" font-size="14" x="111" y="53">
EControlEvent</text>
<text font-family="Dialog" font-size="14" x="101" y="31">
&lt;&lt;enumeration&gt;&gt;</text>
<rect fill="#000000" height="1" stroke="#000000" stroke-width="1" width="286" x="14" y="64"/>
<text font-family="Dialog" font-size="14" x="18" y="81">
EV_DEFAULT_INITIAL</text>
<text font-family="Dialog" font-size="14" x="18" y="101">
EV_START</text>
<text font-family="Dialog" font-size="14" x="18" y="121">
EV_STOP</text>
<text font-family="Dialog" font-size="14" x="18" y="141">
EV_SET_JUMP_FLAG</text>
<text font-family="Dialog" font-size="14" x="18" y="161">
EV_SET_BALANCE_FLAG</text>
<text font-family="Dialog" font-size="14" x="18" y="181">
EV_SET_TRANSMIT_FLAG</text>
<text font-family="Dialog" font-size="14" x="18" y="201">
EV_SET_JUMP_VELOCITY</text>
<text font-family="Dialog" font-size="14" x="18" y="221">
EV_SET_PID_P_VALUE</text>
<text font-family="Dialog" font-size="14" x="18" y="241">
EV_SET_PID_I_VALUE</text>
<text font-family="Dialog" font-size="14" x="18" y="261">
EV_SET_PID_D_VALUE</text>
<text font-family="Dialog" font-size="14" x="18" y="281">
EV_JUMP</text>
<text font-family="Dialog" font-size="14" x="18" y="301">
EV_BRAKE</text>
<text font-family="Dialog" font-size="14" x="18" y="321">
EV_PHIK_IN_BALANCEAREA</text>
<text font-family="Dialog" font-size="14" x="18" y="341">
EV_PHIK_NOT_IN_BALANCEAREA</text>
<text font-family="Dialog" font-size="14" x="18" y="361">
EV_TIMER</text>
<text font-family="Dialog" font-size="14" x="18" y="381">
EV_INIT</text>
<text font-family="Dialog" font-size="14" x="18" y="401">
EV_EXIT</text>
<text font-family="Dialog" font-size="14" x="18" y="421">
EV_RESTING</text>
<text font-family="Dialog" font-size="14" x="18" y="441">
EV_NOT_RESTING</text>
<text font-family="Dialog" font-size="14" x="18" y="461">
EV_JUMP_VELOCITY_REACHED</text>
<rect fill="#000000" height="1" stroke="#000000" stroke-width="1" width="286" x="14" y="475"/>
<rect fill="#ffffff" height="360" stroke="#ffffff" stroke-width="1" width="288" x="774" y="14"/>
<rect fill="none" height="360" stroke="#000000" stroke-width="1" width="288" x="774" y="14"/>
<text font-family="Dialog" font-size="14" x="875" y="52">
ECommEvent</text>
<text font-family="Dialog" font-size="14" x="862" y="31">
&lt;&lt;enumeration&gt;&gt;</text>
<rect fill="#000000" height="1" stroke="#000000" stroke-width="1" width="288" x="774" y="62"/>
<text font-family="Dialog" font-size="14" x="778" y="79">
EV_DEFAULT_INITIAL</text>
<text font-family="Dialog" font-size="14" x="778" y="98">
EV_COMM_MSG_RECEIVED</text>
<text font-family="Dialog" font-size="14" x="778" y="117">
EV_TRANSMIT_TORQUE</text>
<text font-family="Dialog" font-size="14" x="778" y="136">
EV_TRANSMT_PHI_K</text>
<text font-family="Dialog" font-size="14" x="778" y="155">
EV_TRANSMIT_PHI_K_D</text>
<text font-family="Dialog" font-size="14" x="778" y="174">
EV_TRANSMT_PHI_K_DD</text>
<text font-family="Dialog" font-size="14" x="778" y="193">
EV_TRANSMIT_PHI_R_D</text>
<text font-family="Dialog" font-size="14" x="778" y="212">
EV_TRANSMIT_BRAKE_STATE</text>
<text font-family="Dialog" font-size="14" x="778" y="231">
EV_TRANSMIT_FSM_STATE_ENTRY</text>
<text font-family="Dialog" font-size="14" x="778" y="250">
EV_TRANSMIT_UNHANDELED_EV</text>
<text font-family="Dialog" font-size="14" x="778" y="269">
EV_TRANSMIT_SENSOR_ERROR</text>
<text font-family="Dialog" font-size="14" x="778" y="288">
EV_TRANSMIT_MOTOR_ERROR</text>
<rect fill="#000000" height="1" stroke="#000000" stroke-width="1" width="288" x="774" y="325"/>
<rect fill="#ffffff" height="144" stroke="#ffffff" stroke-width="1" width="168" x="366" y="358"/>
<rect fill="none" height="144" stroke="#000000" stroke-width="1" width="168" x="366" y="358"/>
<text font-family="Dialog" font-size="14" x="401" y="396">
EMessageType</text>
<text font-family="Dialog" font-size="14" x="394" y="375">
&lt;&lt;enumeration&gt;&gt;</text>
<rect fill="#000000" height="1" stroke="#000000" stroke-width="1" width="168" x="366" y="406"/>
<text font-family="Dialog" font-size="14" x="370" y="423">
CONTROL_MSG</text>
<text font-family="Dialog" font-size="14" x="370" y="442">
COMM_MSG</text>
<text font-family="Dialog" font-size="14" x="370" y="461">
DIAG_MSG</text>
<rect fill="#000000" height="1" stroke="#000000" stroke-width="1" width="168" x="366" y="475"/>
<polyline fill="none" points="462,253 462,358" stroke="#000000" stroke-width="1"/>
<polygon fill="#000000" points="462,253 467,263 462,273 457,263" stroke="#000000" stroke-width="1"/>
<polygon fill="none" points="462,253 467,263 462,273 457,263" stroke="#000000" stroke-width="1"/>
<text font-family="Dialog" font-size="14" x="474" y="311">
 1</text>
<text font-family="Dialog" font-size="14" x="475" y="281">
1</text>
<text font-family="Dialog" font-size="14" x="475" y="342">
1</text>
<polyline fill="none" points="422,70 299,70" stroke="#000000" stroke-width="1"/>
<polygon fill="#000000" points="422,70 412,75 402,70 412,65" stroke="#000000" stroke-width="1"/>
<polygon fill="none" points="422,70 412,75 402,70 412,65" stroke="#000000" stroke-width="1"/>
<text font-family="Dialog" font-size="14" x="330" y="51">
 </text>
<text font-family="Dialog" font-size="14" x="401" y="64">
1</text>
<text font-family="Dialog" font-size="14" x="304" y="64">
0..1</text>
<polyline fill="none" points="653,69 774,69" stroke="#000000" stroke-width="1"/>
<polygon fill="#000000" points="653,69 663,64 673,69 663,74" stroke="#000000" stroke-width="1"/>
<polygon fill="none" points="653,69 663,64 673,69 663,74" stroke="#000000" stroke-width="1"/>
<text font-family="Dialog" font-size="14" x="682" y="50">
 </text>
<text font-family="Dialog" font-size="14" x="666" y="63">
1</text>
<text font-family="Dialog" font-size="14" x="745" y="63">
0..1</text>
</svg>
