<?xml version="1.0" encoding="utf-8" ?>
<!DOCTYPE svg PUBLIC "-//W3C//DTD SVG 1.1//EN" "http://www.w3.org/Graphics/SVG/1.1/DTD/svg11.dtd">
<svg height="278" version="1.1" width="974" xmlns="http://www.w3.org/2000/svg">
<rect fill="#ffffff" height="240" stroke="#ffffff" stroke-width="1" width="162" x="14" y="24"/>
<rect fill="none" height="240" stroke="#000000" stroke-width="1" width="162" x="14" y="24"/>
<text font-family="Dialog" font-size="14" x="42" y="59">
EMessageType</text>
<text font-family="Dialog" font-size="14" x="27" y="39">
&lt;&lt;enumeration&gt;&gt;</text>
<rect fill="#000000" height="1" stroke="#000000" stroke-width="1" width="162" x="14" y="70"/>
<text font-family="Dialog" font-size="14" x="18" y="85">
DEFAULT</text>
<text font-family="Dialog" font-size="14" x="18" y="103">
MOTOR_READ</text>
<text font-family="Dialog" font-size="14" x="18" y="121">
BREAK_WRITE</text>
<text font-family="Dialog" font-size="14" x="18" y="139">
SENSOR_RECEIVED</text>
<text font-family="Dialog" font-size="14" x="18" y="157">
COM_RECEIVED</text>
<text font-family="Dialog" font-size="14" x="18" y="175">
COM_WRITE</text>
<text font-family="Dialog" font-size="14" x="18" y="193">
DIAG_WRITE</text>
<text font-family="Dialog" font-size="14" x="18" y="211">
MOTOR_WRITE</text>
<rect fill="#000000" height="1" stroke="#000000" stroke-width="1" width="162" x="14" y="232"/>
<rect fill="#ffffff" height="101" stroke="#ffffff" stroke-width="1" width="241" x="526" y="24"/>
<rect fill="none" height="101" stroke="#000000" stroke-width="1" width="241" x="526" y="24"/>
<text font-family="Dialog" font-size="14" x="610" y="38">
CMessage</text>
<rect fill="#000000" height="1" stroke="#000000" stroke-width="1" width="241" x="526" y="49"/>
<text font-family="Dialog" font-size="14" x="530" y="64">
mHeader : CHeader</text>
<text font-family="Dialog" font-size="14" x="530" y="82">
mContent : CMessageContent</text>
<rect fill="#000000" height="1" stroke="#000000" stroke-width="1" width="241" x="526" y="98"/>
<rect fill="#ffffff" height="117" stroke="#ffffff" stroke-width="1" width="258" x="230" y="24"/>
<rect fill="none" height="117" stroke="#000000" stroke-width="1" width="258" x="230" y="24"/>
<text font-family="Dialog" font-size="14" x="329" y="38">
CHeader</text>
<rect fill="#000000" height="1" stroke="#000000" stroke-width="1" width="258" x="230" y="49"/>
<text font-family="Dialog" font-size="14" x="234" y="64">
mSender : EComponentID</text>
<text font-family="Dialog" font-size="14" x="234" y="82">
mReceiver : EComponentID</text>
<text font-family="Dialog" font-size="14" x="234" y="100">
mMessageType : EMessageType</text>
<rect fill="#000000" height="1" stroke="#000000" stroke-width="1" width="258" x="230" y="115"/>
<polyline fill="none" points="230,48 175,48" stroke="#000000" stroke-width="1"/>
<polygon fill="#000000" points="230,48 220,53 210,48 220,43" stroke="#000000" stroke-width="1"/>
<polygon fill="none" points="230,48 220,53 210,48 220,43" stroke="#000000" stroke-width="1"/>
<polyline fill="none" points="526,48 487,48" stroke="#000000" stroke-width="1"/>
<polygon fill="#000000" points="526,48 516,53 506,48 516,43" stroke="#000000" stroke-width="1"/>
<polygon fill="none" points="526,48 516,53 506,48 516,43" stroke="#000000" stroke-width="1"/>
<rect fill="#ffffff" height="70" stroke="#ffffff" stroke-width="1" width="154" x="806" y="24"/>
<rect fill="none" height="70" stroke="#000000" stroke-width="1" width="154" x="806" y="24"/>
<text font-family="Dialog" font-size="14" x="818" y="38">
CMessageContent</text>
<rect fill="#000000" height="1" stroke="#000000" stroke-width="1" width="154" x="806" y="49"/>
<rect fill="#000000" height="1" stroke="#000000" stroke-width="1" width="154" x="806" y="71"/>
<polyline fill="none" points="766,48 806,48" stroke="#000000" stroke-width="1"/>
<polygon fill="#000000" points="766,48 776,43 786,48 776,53" stroke="#000000" stroke-width="1"/>
<polygon fill="none" points="766,48 776,43 786,48 776,53" stroke="#000000" stroke-width="1"/>
</svg>
