<?xml version="1.0" encoding="utf-8" ?>
<!DOCTYPE svg PUBLIC "-//W3C//DTD SVG 1.1//EN" "http://www.w3.org/Graphics/SVG/1.1/DTD/svg11.dtd">
<svg height="238" version="1.1" width="790" xmlns="http://www.w3.org/2000/svg">
<rect fill="#ffffff" height="200" stroke="#ffffff" stroke-width="1" width="164" x="14" y="24"/>
<rect fill="none" height="200" stroke="#000000" stroke-width="1" width="164" x="14" y="24"/>
<text font-family="Dialog" font-size="14" x="43" y="59">
EComponentID</text>
<text font-family="Dialog" font-size="14" x="28" y="39">
&lt;&lt;enumeration&gt;&gt;</text>
<rect fill="#000000" height="1" stroke="#000000" stroke-width="1" width="164" x="14" y="70"/>
<text font-family="Dialog" font-size="14" x="18" y="85">
CONTROL_UNIT</text>
<text font-family="Dialog" font-size="14" x="18" y="103">
MOTOR</text>
<text font-family="Dialog" font-size="14" x="18" y="121">
BRAKE</text>
<text font-family="Dialog" font-size="14" x="18" y="139">
SENSOR</text>
<text font-family="Dialog" font-size="14" x="18" y="157">
COM_PORT</text>
<text font-family="Dialog" font-size="14" x="18" y="175">
DIAG_PORT</text>
<rect fill="#000000" height="1" stroke="#000000" stroke-width="1" width="164" x="14" y="194"/>
<rect fill="#ffffff" height="96" stroke="#ffffff" stroke-width="1" width="248" x="214" y="24"/>
<rect fill="none" height="96" stroke="#000000" stroke-width="1" width="248" x="214" y="24"/>
<text font-family="Dialog" font-size="14" x="292" y="38">
AComponent</text>
<rect fill="#000000" height="1" stroke="#000000" stroke-width="1" width="248" x="214" y="49"/>
<text font-family="Dialog" font-size="14" x="218" y="64">
mQueue : CMessageQueue</text>
<rect fill="#000000" height="1" stroke="#000000" stroke-width="1" width="248" x="214" y="75"/>
<text font-family="Dialog" font-size="14" x="218" y="90">
run() : void</text>
<text font-family="Dialog" font-size="14" x="218" y="108">
dispatch(CMessage&amp; : msg) : bool</text>
<rect fill="#ffffff" height="169" stroke="#ffffff" stroke-width="1" width="258" x="518" y="24"/>
<rect fill="none" height="169" stroke="#000000" stroke-width="1" width="258" x="518" y="24"/>
<text font-family="Dialog" font-size="14" x="587" y="38">
CMessageQueue</text>
<rect fill="#000000" height="1" stroke="#000000" stroke-width="1" width="258" x="518" y="49"/>
<text font-family="Dialog" font-size="14" x="522" y="64">
sMaxSize : UInt32</text>
<text font-family="Dialog" font-size="14" x="522" y="82">
mCurrentSize : UInt32</text>
<text font-family="Dialog" font-size="14" x="522" y="100">
mFirstIndex : UInt32</text>
<text font-family="Dialog" font-size="14" x="522" y="118">
mLastIndex : UInt32</text>
<text font-family="Dialog" font-size="14" x="522" y="136">
mList : CMessage</text>
<rect fill="#000000" height="1" stroke="#000000" stroke-width="1" width="258" x="518" y="147"/>
<text font-family="Dialog" font-size="14" x="522" y="162">
pushBack(CMessage&amp; : msg) : bool</text>
<text font-family="Dialog" font-size="14" x="522" y="180">
popFront(CMessage&amp; : msg) : bool</text>
<polyline fill="none" points="461,48 518,48" stroke="#000000" stroke-width="1"/>
<polygon fill="#000000" points="461,48 471,43 481,48 471,53" stroke="#000000" stroke-width="1"/>
<polygon fill="none" points="461,48 471,43 481,48 471,53" stroke="#000000" stroke-width="1"/>
<text font-family="Dialog" font-size="14" x="473" y="41">
1</text>
<text font-family="Dialog" font-size="14" x="496" y="41">
1</text>
</svg>
