<?xml version="1.0" encoding="utf-8" ?>
<!DOCTYPE svg PUBLIC "-//W3C//DTD SVG 1.1//EN" "http://www.w3.org/Graphics/SVG/1.1/DTD/svg11.dtd">
<svg height="206" version="1.1" width="672" xmlns="http://www.w3.org/2000/svg">
<rect fill="#ffffff" height="92" stroke="#ffffff" stroke-width="1" width="231" x="14" y="27"/>
<rect fill="none" height="92" stroke="#000000" stroke-width="1" width="231" x="14" y="27"/>
<text font-family="Dialog" font-size="14" x="93" y="41">
CMessage</text>
<rect fill="#000000" height="1" stroke="#000000" stroke-width="1" width="231" x="14" y="52"/>
<text font-family="Dialog" font-size="14" x="18" y="67">
mHeader : CHeader</text>
<text font-family="Dialog" font-size="14" x="18" y="85">
mContent : CMessageContent</text>
<rect fill="#000000" height="1" stroke="#000000" stroke-width="1" width="231" x="14" y="96"/>
<rect fill="#ffffff" height="168" stroke="#ffffff" stroke-width="1" width="296" x="362" y="24"/>
<rect fill="none" height="168" stroke="#000000" stroke-width="1" width="296" x="362" y="24"/>
<text font-family="Dialog" font-size="14" x="450" y="38">
CMessageQueue</text>
<rect fill="#000000" height="1" stroke="#000000" stroke-width="1" width="296" x="362" y="49"/>
<text font-family="Dialog" font-size="14" x="366" y="64">
sMaxSize : UInt32</text>
<text font-family="Dialog" font-size="14" x="366" y="82">
mCurrentSize : UInt32</text>
<text font-family="Dialog" font-size="14" x="366" y="100">
mFirstIndex : UInt32</text>
<text font-family="Dialog" font-size="14" x="366" y="118">
mLastIndex : UInt32</text>
<text font-family="Dialog" font-size="14" x="366" y="136">
mList : CMessage</text>
<rect fill="#000000" height="1" stroke="#000000" stroke-width="1" width="296" x="362" y="147"/>
<text font-family="Dialog" font-size="14" x="366" y="162">
pushBack(CMessage&amp; : msg) : bool</text>
<text font-family="Dialog" font-size="14" x="366" y="180">
popFront(CMessage&amp; : msg) : bool</text>
<polyline fill="none" points="362,48 244,48" stroke="#000000" stroke-width="1"/>
<polygon fill="#000000" points="362,48 352,53 342,48 352,43" stroke="#000000" stroke-width="1"/>
<polygon fill="none" points="362,48 352,53 342,48 352,43" stroke="#000000" stroke-width="1"/>
<text font-family="Dialog" font-size="14" x="340" y="41">
1</text>
<text font-family="Dialog" font-size="14" x="249" y="41">
1..*</text>
</svg>
